<svg id="Capa_1" data-name="Capa 1" xmlns="http://www.w3.org/2000/svg" viewBox="0 0 196.27 73.67"><defs><style>.cls-1{fill:#1f140f;}</style></defs><title>logo-insomnio</title><path class="cls-1" d="M14.17,23.71A19.92,19.92,0,0,1,25.11,13.14a21.79,21.79,0,0,1,16,0,20.23,20.23,0,0,1,6.56,4.21,19.53,19.53,0,0,1,6,14.27H46.23a10.75,10.75,0,0,0-1-4.73,11.69,11.69,0,0,0-2.81-3.73,13,13,0,0,0-4.18-2.46,15.06,15.06,0,0,0-10.2,0,13,13,0,0,0-4.19,2.46A11.66,11.66,0,0,0,21,26.89a11.28,11.28,0,0,0,0,9.46A11.29,11.29,0,0,0,23.82,40,13.55,13.55,0,0,0,28,42.48a15.14,15.14,0,0,0,10,.08,13.13,13.13,0,0,0,4.07-2.23,12,12,0,0,0,2.86-3.41,10.16,10.16,0,0,0,1.29-4.39l6.82,4a18.72,18.72,0,0,1-2.66,6.1,19.68,19.68,0,0,1-4.5,4.78A20.33,20.33,0,0,1,40,50.53a21.72,21.72,0,0,1-6.87,1.09,21.21,21.21,0,0,1-8-1.52,20.15,20.15,0,0,1-6.53-4.21,20.37,20.37,0,0,1-4.41-6.36,19.9,19.9,0,0,1,0-15.82Z"/><path class="cls-1" d="M15.08,48.6c1.21,1.38,7.78,8.28,18.21,8.2a24.85,24.85,0,0,0,17.84-8.2v7.15a29.18,29.18,0,0,1-17.8,6.3H33.1a29.19,29.19,0,0,1-18-6.3Z"/><rect class="cls-1" x="19.23" y="17.21" width="27.72" height="14.4" transform="translate(66.18 48.83) rotate(-180)"/><circle class="cls-1" cx="33.11" cy="31.62" r="3.94"/><path class="cls-1" d="M63.86,31.82V47.56H60.57V31.82Z"/><path class="cls-1" d="M95.42,38.36a20.23,20.23,0,0,1,2,.65,6.36,6.36,0,0,1,1.57.88,3.73,3.73,0,0,1,1,1.24,3.78,3.78,0,0,1,.37,1.71v.06a4.49,4.49,0,0,1-.44,2,4.65,4.65,0,0,1-1.21,1.54,5.56,5.56,0,0,1-1.83,1,7.17,7.17,0,0,1-2.28.35,8.32,8.32,0,0,1-2.19-.28,8.74,8.74,0,0,1-1.9-.74,7.26,7.26,0,0,1-1.49-1,4.46,4.46,0,0,1-1-1.21l2.63-1.66a11.15,11.15,0,0,0,.85.84,5.24,5.24,0,0,0,.9.63,4.3,4.3,0,0,0,1,.39,5.2,5.2,0,0,0,1.23.14,4.28,4.28,0,0,0,.87-.09,2.65,2.65,0,0,0,.8-.3A1.77,1.77,0,0,0,97,44a1.27,1.27,0,0,0,.23-.76,1.35,1.35,0,0,0-.16-.61A2,2,0,0,0,96.5,42a4.64,4.64,0,0,0-1-.54A15.19,15.19,0,0,0,93.82,41a16.65,16.65,0,0,1-2.18-.66A6.53,6.53,0,0,1,90,39.4a3.68,3.68,0,0,1-1-1.27,4,4,0,0,1-.36-1.76,4.72,4.72,0,0,1,.41-2,4.21,4.21,0,0,1,1.16-1.5,5.4,5.4,0,0,1,1.74-.94,7.17,7.17,0,0,1,2.15-.32,8,8,0,0,1,2.16.27,8.21,8.21,0,0,1,1.73.68,6.43,6.43,0,0,1,1.34,1,7.94,7.94,0,0,1,1,1L97.67,36.2a6.72,6.72,0,0,0-1.83-1.29A4.51,4.51,0,0,0,94,34.54a2.93,2.93,0,0,0-1,.15,2,2,0,0,0-.69.36,1.58,1.58,0,0,0-.42.48,1.16,1.16,0,0,0-.14.52,1.32,1.32,0,0,0,.23.77,2.23,2.23,0,0,0,.7.6,6,6,0,0,0,1.15.49C94.31,38.06,94.84,38.21,95.42,38.36Z"/><path class="cls-1" d="M115.34,32.18a6.18,6.18,0,0,1,2,1.39,6.25,6.25,0,0,1,1.33,2.06,6.88,6.88,0,0,1,0,5,6.4,6.4,0,0,1-1.33,2.07,6.18,6.18,0,0,1-2,1.39,6.09,6.09,0,0,1-2.49.51V42.29a3.35,3.35,0,0,0,1.49-.32,3.79,3.79,0,0,0,1.18-.89,3.93,3.93,0,0,0,.77-1.32,4.51,4.51,0,0,0,.28-1.61,4.58,4.58,0,0,0-.28-1.61,4.13,4.13,0,0,0-.77-1.32,3.76,3.76,0,0,0-1.18-.88,3.53,3.53,0,0,0-3,0,3.41,3.41,0,0,0-1.17.88,4.32,4.32,0,0,0-.77,1.32,4.58,4.58,0,0,0-.28,1.61,4.66,4.66,0,0,0,.25,1.55A4.07,4.07,0,0,0,110.1,41a3.89,3.89,0,0,0,1.07.91,3.25,3.25,0,0,0,1.39.4l-1.27,2.16a5.91,5.91,0,0,1-1.92-.84,6.39,6.39,0,0,1-1.51-1.42,6.3,6.3,0,0,1-1-1.87,6.76,6.76,0,0,1-.34-2.17,6.84,6.84,0,0,1,.47-2.52,6.41,6.41,0,0,1,1.33-2.06,6.29,6.29,0,0,1,2-1.39,6.25,6.25,0,0,1,5,0Z"/><path class="cls-1" d="M137.41,31.82h2.43v2l-7.26,10.95-4.11-6.18v9H125.3V31.82h2.43l4.85,7.31Zm-.74,15.74V39.28l3.17-2.18V47.56Z"/><path class="cls-1" d="M148.07,31.82l10.14,14.61v1.13h-3.28l-6.86-9.9v9.9h-3.28V31.82Zm6.86,0h3.28V43.6l-3.28-2.36Z"/><path class="cls-1" d="M72.65,31.82,82.79,46.43v1.13H79.5l-6.85-9.9v9.9H69.36V31.82Zm6.85,0h3.29V43.6L79.5,41.24Z"/><path class="cls-1" d="M166.44,31.82V47.56h-3.28V31.82Z"/><path class="cls-1" d="M107.15,43.51a7.54,7.54,0,0,0,11.38,0v2.26a9.21,9.21,0,0,1-5.62,2h-.07a9.23,9.23,0,0,1-5.69-2Z"/><circle class="cls-1" cx="112.84" cy="38.15" r="1.24"/><path class="cls-1" d="M177.43,31.66a5.94,5.94,0,0,1,2.49.52,6.28,6.28,0,0,1,3.34,3.45,6.65,6.65,0,0,1,.48,2.52,7,7,0,0,1-.34,2.17,6.54,6.54,0,0,1-1,1.87,6.37,6.37,0,0,1-1.51,1.42,6.06,6.06,0,0,1-1.93.84l-1.26-2.15a3.41,3.41,0,0,0,1.38-.41,3.94,3.94,0,0,0,1.08-.91,4.05,4.05,0,0,0,.7-1.28,4.66,4.66,0,0,0,.25-1.55,4.58,4.58,0,0,0-.28-1.61,4.3,4.3,0,0,0-.76-1.32,3.61,3.61,0,0,0-1.17-.88,3.36,3.36,0,0,0-1.49-.33,3.4,3.4,0,0,0-1.5.33,3.61,3.61,0,0,0-1.17.88,4.35,4.35,0,0,0-.78,1.32,4.58,4.58,0,0,0-.28,1.61,4.51,4.51,0,0,0,.28,1.61,4.12,4.12,0,0,0,.78,1.32,3.64,3.64,0,0,0,1.17.89,3.4,3.4,0,0,0,1.5.33v2.35a6.11,6.11,0,0,1-2.5-.51,6.29,6.29,0,0,1-2-1.39,6.57,6.57,0,0,1-1.33-2.07,6.88,6.88,0,0,1,0-5,6.41,6.41,0,0,1,1.33-2.06,6.29,6.29,0,0,1,2-1.39A6,6,0,0,1,177.43,31.66Z"/><path class="cls-1" d="M183.11,43.51a7.53,7.53,0,0,1-11.37,0v2.26a9.21,9.21,0,0,0,5.62,2h.07a9.19,9.19,0,0,0,5.68-2Z"/><circle class="cls-1" cx="177.43" cy="38.15" r="1.24"/><path class="cls-1" d="M85.54,54h2.62a3.57,3.57,0,0,1,3.68,3.89c0,2.37-1.47,4-3.69,4H85.54Zm.61,7.35h1.91c2.1,0,3.13-1.47,3.13-3.43,0-1.74-.93-3.36-3.13-3.36H86.15Z"/><path class="cls-1" d="M99.86,54V62h-.61V54Z"/><path class="cls-1" d="M113.85,62h-.51a6.26,6.26,0,0,1-.08-1.27,2.56,2.56,0,0,1-2.56,1.36c-2.27,0-3.44-1.73-3.44-4s1.25-4.15,3.57-4.15a2.84,2.84,0,0,1,3.09,2.36h-.61a2.36,2.36,0,0,0-2.5-1.79c-2,0-2.89,1.54-2.89,3.54,0,1.81.87,3.45,2.81,3.45s2.53-1.29,2.53-3v-.09H110.7v-.57h3.15Z"/><path class="cls-1" d="M122.17,54V62h-.61V54Z"/><path class="cls-1" d="M131.75,54.6h-2.66V54h6v.56h-2.68V62h-.62Z"/><path class="cls-1" d="M141.81,59.22l-1,2.74h-.63L143.08,54h.73l3,7.92h-.66l-1-2.74Zm3.13-.57c-.88-2.35-1.33-3.48-1.49-4h0c-.2.6-.71,2-1.42,4Z"/><path class="cls-1" d="M153.91,54h.61v7.35h4.26l-.12.57h-4.75Z"/></svg>