<svg id="Layer_1" data-name="Layer 1" xmlns="http://www.w3.org/2000/svg" viewBox="0 0 646.17 611.61"><defs><style>.cls-1{fill:#231f20;}</style></defs><title>logoBellota</title><path class="cls-1" d="M155.36,520l10.12,4.44a20,20,0,0,1,5.29,3.46,17.32,17.32,0,0,1,3.91,5.13,15.94,15.94,0,0,1,1.63,6.41,16.37,16.37,0,0,1-11.67,16.46,17.16,17.16,0,0,1-6.42.59,19.54,19.54,0,0,1-6.12-1.55L142,550.45Zm-9,29,6,2.65a17.41,17.41,0,0,0,6.52,1.6,13.52,13.52,0,0,0,5.49-.93,12.08,12.08,0,0,0,4.26-2.86,14.22,14.22,0,0,0,2.83-4.22,14.36,14.36,0,0,0,1.19-5,12,12,0,0,0-.78-5.07,13.66,13.66,0,0,0-3-4.67,17.3,17.3,0,0,0-5.59-3.71l-6-2.64Z"/><path class="cls-1" d="M211.76,574.06l17,5.29-.92,3L207.61,576l9.9-31.79,19.71,6.14-.92,3-16.48-5.13L216.45,559l15.4,4.8-.92,3L215.52,562Z"/><path class="cls-1" d="M276.12,595.27l-3.29-.83,7.38-29.28-10.81-2.73.76-3,24.9,6.28-.76,3L283.49,566Z"/><path class="cls-1" d="M321.68,605.51l-3.9-.61,19.46-30.66,3.25.51,9.16,35.14-3.9-.61-2.27-9.22-16.82-2.63Zm6.71-11,14.27,2.23-4.4-18.4Z"/><path class="cls-1" d="M394.62,608.3l15.49-1,.2,3.1-18.87,1.18-2.08-33.23,3.38-.21Z"/><path class="cls-1" d="M455.2,596l14.34-5.91,1.19,2.87-17.48,7.2-12.69-30.78,3.13-1.29Z"/><path class="cls-1" d="M508.21,565.88l14.05-11,1.92,2.45-16.73,13L487,544.16l16.28-12.71,1.91,2.45-13.61,10.62,7,8.94,12.72-9.93,1.9,2.45-12.71,9.92Z"/><path class="cls-1" d="M545.93,497.57a7.31,7.31,0,0,0-6.79,2.43,9.61,9.61,0,0,0-1.53,2.12,7.44,7.44,0,0,0-.79,2.4,5.37,5.37,0,0,0,.25,2.47,5.49,5.49,0,0,0,1.54,2.31,4.66,4.66,0,0,0,3.41,1.49,10.15,10.15,0,0,0,3.66-.87,34.13,34.13,0,0,0,3.87-2,18.92,18.92,0,0,1,4.06-1.81,9.81,9.81,0,0,1,4.2-.36,8,8,0,0,1,4.32,2.35,8.69,8.69,0,0,1,2.29,3.5,9.46,9.46,0,0,1,.44,3.94,12.09,12.09,0,0,1-1.06,3.85,12.61,12.61,0,0,1-2.23,3.3,14.9,14.9,0,0,1-4.84,3.41,11,11,0,0,1-6,.79l.54-3.77a8.11,8.11,0,0,0,4.2-.15,9,9,0,0,0,3.93-2.54,8.07,8.07,0,0,0,1.45-2.11,7.24,7.24,0,0,0,.72-2.46,6.56,6.56,0,0,0-.23-2.52,5.17,5.17,0,0,0-1.43-2.25,5.35,5.35,0,0,0-2.6-1.47,6.41,6.41,0,0,0-2.72.07,12,12,0,0,0-2.82,1.09c-.95.5-1.93,1-2.92,1.57s-2,1-3,1.47a10.76,10.76,0,0,1-3.08.83,7.55,7.55,0,0,1-3.17-.35,8.82,8.82,0,0,1-3.28-2.12,9.14,9.14,0,0,1-2.41-3.54,8.81,8.81,0,0,1-.46-3.82,10.56,10.56,0,0,1,1.12-3.7,14.6,14.6,0,0,1,2.31-3.26,14.45,14.45,0,0,1,4.18-3.1,11.15,11.15,0,0,1,5.24-.93Z"/><path class="cls-1" d="M210.86,310.23q6.76-4.68,13-16.39,9.38-17.18,9.37-21.34c0-1.38-.87-2.08-2.6-2.08a3.47,3.47,0,0,0-2.87,1.3q-19.5,33.31-19.51,35.91C208.26,309,209.13,309.89,210.86,310.23Z"/><path class="cls-1" d="M442.43,293.84q-8.6,22.38-8.59,39.55a28.7,28.7,0,0,0,1,8.32q8.07-4.41,14.05-16.65a73.91,73.91,0,0,0,7.55-32,35.88,35.88,0,0,0-3.64-16.66Q447.37,281.09,442.43,293.84Z"/><path class="cls-1" d="M74.12,360.14a389,389,0,0,0,45.41-37q22.23-21,33.12-40.9,5.59-9.94,5.6-18a21.17,21.17,0,0,0-5.6-14.62q-9-8.7-24.88-8.71-2.8,0-14.46,1.09t-28.61,9.8q-17,8.72-20.06,26.59t-3.12,29.08a158.7,158.7,0,0,0,.94,18v2.8q0,9.64-10,9.64a14.51,14.51,0,0,1-8.4-2.8q-8.4-6.21-10.26-14.62A52.16,52.16,0,0,1,32.6,309q0-9.64,14-94.55,3.42-20.52,3.42-28,0-4.66-2.18-4.67T40.69,188Q32,198,25.14,198a46.85,46.85,0,0,1-5.29-.78c-1.57-.28-2.92-1.58-4.06-3.83-13.28,31.83-19,66.54-14,100.54,4.67,31.64,18.31,61,37.53,86.59Q52.86,374.8,74.12,360.14Z"/><path class="cls-1" d="M638.4,216.37C610.66,117,593.77,29.22,476.46,8.31A512,512,0,0,0,180.31,42.59C129.68,64.77,82,96,47.69,139.32A232.09,232.09,0,0,0,32,161.76q18.27-14.62,46.62-28.19,33-15.87,58.78-15.86,22.4,0,33,18.35a19.33,19.33,0,0,1,1.55,7.46q0,18.36-37,55-15.55,16.17-15.55,19.28c0,.83.93,1.35,2.8,1.56q25.81,3.42,43.07,12.9t17.27,35.61q-.31,26.44-19.13,51a254.31,254.31,0,0,1-43.85,44.47q-25,19.91-44.63,30.17a51.4,51.4,0,0,1-20.32,5.22,266.73,266.73,0,0,0,46.64,40.06c49.92,33.85,108.6,52.22,167.1,66.89,50,12.52,103,22.61,152.42,8.08,46.92-13.79,84.82-48.18,117.79-84.29a860.82,860.82,0,0,0,61.4-75.45q-15.16-7.72-15.18-28.5,0-8.58-1.82-8.58-.25,0-12.75,15.87-7,9.11-13.53,16.52t-13.27,7.42a20,20,0,0,1-10.14-2.87q-10.68-6-10.67-18.21a28.87,28.87,0,0,1,.78-6.5q6.49-32.53,31.22-65.06,10.14-13.26,21.08-13.26a19.35,19.35,0,0,1,12.23,4.29q5.46,4.29,5.46,7.41a10,10,0,0,1-1,4.95q-2.87,5.46-6.25,5.46a10.72,10.72,0,0,1-5.72-1.3,10.31,10.31,0,0,0-3.64-1.56c-1,0-2.43,1.22-4.17,3.64q-11.19,15.09-22.37,45.28a17.88,17.88,0,0,0-1.56,5.46c0,.87.26,1.3.78,1.3q3.9,0,22.37-23.16,23.41-29.4,28.62-31a19.27,19.27,0,0,1,4.95-.78,9.41,9.41,0,0,1,3.38.52q7.29,3.9,7.29,14.83a38.08,38.08,0,0,1-1.3,9.63q-4.7,19-4.69,33.31a49.62,49.62,0,0,0,.9,9.38q4.59-6.63,9.05-13.34c12.44-18.75,24.49-39,26-61.43C647.11,247.77,642.73,231.88,638.4,216.37ZM476.65,310.62q-.4,10-8.2,27.45t-20.56,23.68a20.59,20.59,0,0,1-8.84,2.08q-5.73,0-13.67-4.16-6.37-3.36-10.65-11.61-20,31.37-47.24,31.38-19.77,0-25.49-19a68.16,68.16,0,0,1-2-8.05q-19.08,27-44.33,27-19.77,0-25.49-19a81.5,81.5,0,0,1-3.36-19.17,87.84,87.84,0,0,1-14.21,12.92q-12.09,9.1-21.72,10.15-5.47.52-10.15.52-39.56,0-39.55-36.69,0-3.37,1.43-15.35t11.06-31.22q17.43-34.35,37.21-34.35,16.13,0,24.46,16.13A22.12,22.12,0,0,1,258,273.8a29.7,29.7,0,0,1-3.9,14.05q-22.4,33.06-42.16,42.42-7,3.38-7,7a9.72,9.72,0,0,0,.52,3.12q2.34,8.34,9.37,8.33,10.39,0,27.83-12.75,11.46-8.33,16.4-12.75c3.32-3.32,6.08-5.3,8.3-6q2.13-23.19,10.3-54.27,11.06-42,22-83.91,2.6-9.89,10.67-9.89a15.46,15.46,0,0,1,5.2,1q6.24,2.35,6.25,8.59a27.13,27.13,0,0,1-1,6.77q-30.43,116.57-30.44,158.2,0,19.51,7,19.51,9.09,0,38.25-27.32c.17,0,.25-.09.25-.26a12.22,12.22,0,0,1,2.62-1.83c0-.44,0-.85,0-1.29q0-27.58,11.06-69.61t22-83.91q2.6-9.89,10.67-9.89a15.46,15.46,0,0,1,5.2,1q6.24,2.35,6.24,8.59a26.61,26.61,0,0,1-1,6.77Q362,302.17,362,343.8q0,19.51,7,19.51,9.1,0,38.25-27.32a.23.23,0,0,0,.26-.26,12.13,12.13,0,0,1,2.83-2c-.14-1.48-.24-3-.24-4.54q0-12.5,6.51-33.57a181.49,181.49,0,0,1,15.09-36.17q5.21-9.11,14.05-9.11,14.56,0,16.65,13c.17,1.39,1.39,3.22,3.65,5.47Q477,279.27,477,299.56C477,300.26,476.9,304,476.65,310.62Zm114.87-92c-1.39,2.6-3.13,3.9-5.2,3.9a15.18,15.18,0,0,1-7-2.08q-6.76-3.37-22.12-3.38-26.28,0-28.1,4.16a26.07,26.07,0,0,0-1.82,5.21,506.93,506.93,0,0,0-12,110.32q0,20.3,2.34,33.31A43.63,43.63,0,0,0,524.91,387a5.76,5.76,0,0,1,1.3,3.12,6,6,0,0,1-1.3,3.38q-2.61,3.12-8.33,3.39a9.24,9.24,0,0,1-4.16-1q-11.19-4.95-14.83-14.58-6.25-16.65-6.25-52.3,0-40.84,10.93-99.91a41.84,41.84,0,0,0,.52-5.47c0-1.56-.69-2.34-2.08-2.34a25,25,0,0,0-9.63,2.34q-7,2.88-19,2.87-4.95,0-10.67-9.37a14.32,14.32,0,0,1-2.34-7.29q0-6.49,10.41-7.8l33.56-4.43q6-.78,8.07-8.06l17.69-61.93q2.87-10.14,10.15-10.15a17.72,17.72,0,0,1,5.46,1q10.16,3.92,10.15,11.45a19,19,0,0,1-1.3,6.25q-4.95,13.26-12.75,37.73-4.68,14.31-4.68,16.39.25,4.42,7.28,4.42l14.31-.26a97.58,97.58,0,0,1,11.45.78q6.5.78,15.09,6.25t8.85,11.71A13.33,13.33,0,0,1,591.52,218.64Z"/><path class="cls-1" d="M98.22,202.3A215.18,215.18,0,0,0,127.77,165q7.47-12.14,7.46-17.42c0-2.48-1.35-3.73-4-3.73q-26.75,0-48.21,33.9-1.24,1.88-2.79,8.71-3.43,13.38-3.43,22.08,0,8.08,3.43,8.09Q84.54,216.61,98.22,202.3Z"/></svg>