<svg id="Capa_1" data-name="Capa 1" xmlns="http://www.w3.org/2000/svg" viewBox="0 0 161.84 86.54"><defs><style>.cls-1{fill:#e14332;}.cls-2{fill:#1f140f;}</style></defs><title>logoBork</title><path class="cls-1" d="M104.06,40.85c5.16-2.13,10.33-4.21,15.49-6.34,1.21-.51,2.36-1.16,3.48-1.72a9.2,9.2,0,0,1-1.51-1.32,15.65,15.65,0,0,0-11.73-6.72c-4.74-.52-9.51-1-14.27-1.09a11.85,11.85,0,0,0-9.67,4.39c-3.23,3.87-7.34,5.07-12.14,4.46a47.7,47.7,0,0,1-7.24-1.28,11.24,11.24,0,0,1-8.06-7.33,4.59,4.59,0,0,0-3.64-3.17c-6-1.55-12-3.36-18.18-4.76.5.47,1,1,1.49,1.4a60,60,0,0,0,14.35,9.26c2.13.92,3.93,2.67,5.78,4.17a33.1,33.1,0,0,1,4.89,4.87c-2.47-1.62-4.86-3.38-7.44-4.8a34.76,34.76,0,0,0-6.88-2.94c-8-2.37-13.54-7.74-18.35-14.08l.23-.56c2.77.4,5.56.75,8.32,1.22,5.57,1,11.11,2,16.68,2.92A5.85,5.85,0,0,1,60.47,21c2.48,5.34,7,8,12.65,8.86,3.68.56,6.63-.33,8.93-3.71,4.16-6.09,10.51-7.51,17.41-7,7.1.47,13.78,2.76,20.44,5.08,3.34,1.17,5,3.72,5.63,7.07,4.57-1.77,5.38-4.72,1.91-7.82a82.72,82.72,0,0,0-8.9-6.33c-1.14-.78-2.38-1.41-3.94-2.32,1.1-.83,2-1.45,2.82-2.14a56.15,56.15,0,0,0,5.09-4.38c.84-.88,1.41-1,2.32-.38.44.3.93.53,1.35.85C134,14.65,140,22,142.68,31.58a47.58,47.58,0,0,1,.94,7.38c-5.73.8-6.07.93-8.65,3.3,5.5.47,10.48,1.84,14.37,5.7s5.42,8.84,4.87,14.39c-.83,8.53-6.52,14.87-14.74,16.33-9.58,1.7-16.46-2.52-21.92-13.57-.09.59-.18,1-.23,1.45-.45,4.13.13,3.81-4,3.78q-46.38-.27-92.76-.67c-1.17,0-2.34-.13-3.51-.19v-.16c9.37-.28,18.74-.58,28.11-.84q33.11-.9,66.2-1.74c1.19,0,2-.21,2.38-1.51,3.52-11.67,11.71-19.33,21.87-25.29.78-.46,1.51-1,2.58-1.73l-8.79-2.57.14-.72,11,1.59c-.37-2.12-.61-4.07-1-6a32.11,32.11,0,0,0-13.08-19.83c-1.47-1-2.63-1.49-3.92.39a19.3,19.3,0,0,1-3.17,3c3.39,2.83,6.85,5.43,10,8.39,5.1,4.84,4.71,8.3-1.65,11.26-1.39.65-2.78,1.28-4.18,1.91ZM134.4,75.54c7.85-.05,13.76-5.65,13.75-13,0-8-5.65-13.73-13.46-13.69S121.06,54.46,121.11,62C121.16,70,126.64,75.58,134.4,75.54Z"/><path class="cls-1" d="M132.11,70.87c6.7.06,10.46-3.07,10.66-8.64.2-5.38-3.44-8.44-10.39-8.73,3.12-1.91,7.38-.9,10.21,2.41a9.85,9.85,0,0,1,.14,12.48C140,71.71,135.55,72.84,132.11,70.87Z"/><path class="cls-2" d="M15.07,37.64H26c7.61,0,9.45,2.79,9.45,5.84s-2,5.52-5.8,6.51a5,5,0,0,1,4,4.88c0,4.18-3.33,7.54-11.82,7.54H8.42Zm7.08,18.5c2,0,3.22-.88,3.22-2.12,0-1.06-.89-1.56-2.65-1.56H19.14l-1,3.68Zm2.19-8.77c2.13,0,3.08-1,3.08-2s-.78-1.45-2.55-1.45H21.44l-.92,3.47Z"/><path class="cls-2" d="M39.73,53.88A11.4,11.4,0,0,1,51.31,42.63c6.08,0,9.66,4,9.66,9A11.41,11.41,0,0,1,49.39,62.87C43.31,62.87,39.73,58.9,39.73,53.88ZM53.39,52a2.57,2.57,0,0,0-2.58-2.8c-2,0-3.5,2.06-3.5,4.35a2.57,2.57,0,0,0,2.58,2.8C51.91,56.32,53.39,54.27,53.39,52Z"/><path class="cls-2" d="M69.67,43.09h8l-1,3.89c1.8-2.62,4-4.32,7.14-4.18l-2.26,8.53h-.85c-3.79,0-5.8,2-6.9,6.26l-1.27,4.82h-8Z"/><path class="cls-2" d="M91.29,36.58h8L96.1,48.5l5.17-5.41h9.16L102,51.37l3.39,11H97l-1.45-5.59-2.3,2.3-.88,3.29h-8Z"/><path class="cls-2" d="M12.57,77.43l-.7-1.53H8.64l-.7,1.53H7.52l2.55-5.52h.39L13,77.43Zm-2.31-5.07L8.81,75.53H11.7Z"/><path class="cls-2" d="M17.52,77.3a1.83,1.83,0,0,1-.93.22,2,2,0,0,1-.81-.16,2.27,2.27,0,0,1-.64-.46,1.94,1.94,0,0,1-.43-.65,2.15,2.15,0,0,1-.15-.8v0a2.09,2.09,0,0,1,.15-.79,2,2,0,0,1,.43-.67,2.09,2.09,0,0,1,.64-.46,2,2,0,0,1,.81-.17,2.1,2.1,0,0,1,.51.06,1.94,1.94,0,0,1,.42.17,1.88,1.88,0,0,1,.36.24,2,2,0,0,1,.3.28l-.27.28a2.8,2.8,0,0,0-.57-.46,1.43,1.43,0,0,0-.76-.2,1.7,1.7,0,0,0-.64.13,1.46,1.46,0,0,0-.51.37,1.66,1.66,0,0,0-.34.54,1.85,1.85,0,0,0-.12.67h0a1.91,1.91,0,0,0,.12.68,1.87,1.87,0,0,0,.36.55A1.73,1.73,0,0,0,16,77a1.53,1.53,0,0,0,.64.14,1.45,1.45,0,0,0,.75-.2,2.08,2.08,0,0,0,.59-.47l.26.23A2.73,2.73,0,0,1,17.52,77.3Z"/><path class="cls-2" d="M22.81,77.3a1.83,1.83,0,0,1-.93.22,2,2,0,0,1-.81-.16,2.27,2.27,0,0,1-.64-.46,1.94,1.94,0,0,1-.43-.65,2.15,2.15,0,0,1-.15-.8v0a2.09,2.09,0,0,1,.15-.79,2,2,0,0,1,.43-.67,2.09,2.09,0,0,1,.64-.46,2,2,0,0,1,.81-.17,2.1,2.1,0,0,1,.51.06,2.26,2.26,0,0,1,.43.17,2.16,2.16,0,0,1,.35.24,2,2,0,0,1,.3.28l-.27.28a2.8,2.8,0,0,0-.57-.46,1.41,1.41,0,0,0-.76-.2,1.7,1.7,0,0,0-.64.13,1.55,1.55,0,0,0-.51.37,1.66,1.66,0,0,0-.34.54,1.85,1.85,0,0,0-.12.67h0a1.72,1.72,0,0,0,.13.68,1.67,1.67,0,0,0,.35.55,1.73,1.73,0,0,0,.52.36,1.53,1.53,0,0,0,.64.14,1.45,1.45,0,0,0,.75-.2,2.08,2.08,0,0,0,.59-.47l.26.23A2.73,2.73,0,0,1,22.81,77.3Z"/><path class="cls-2" d="M25.71,76.25a1.8,1.8,0,0,0,.35.49,1.5,1.5,0,0,0,.49.31,1.56,1.56,0,0,0,.57.11,1.59,1.59,0,0,0,.79-.18,2.32,2.32,0,0,0,.58-.45l.27.23a3.09,3.09,0,0,1-.7.55,2,2,0,0,1-1,.21,1.93,1.93,0,0,1-.75-.15,1.79,1.79,0,0,1-.63-.42,1.87,1.87,0,0,1-.42-.66,2.11,2.11,0,0,1-.16-.85h0a2.38,2.38,0,0,1,.14-.81,2.13,2.13,0,0,1,.4-.67,2,2,0,0,1,.6-.44,1.72,1.72,0,0,1,.75-.17,1.81,1.81,0,0,1,.76.16,1.71,1.71,0,0,1,.58.45,1.92,1.92,0,0,1,.37.66,2.71,2.71,0,0,1,.13.82v.09s0,0,0,.07H25.55A1.69,1.69,0,0,0,25.71,76.25Zm2.75-1a2.81,2.81,0,0,0-.12-.59,1.69,1.69,0,0,0-.28-.49,1.3,1.3,0,0,0-.43-.34A1.33,1.33,0,0,0,27,73.7a1.26,1.26,0,0,0-.55.11,1.39,1.39,0,0,0-.46.33,1.86,1.86,0,0,0-.31.49,1.61,1.61,0,0,0-.15.62Z"/><path class="cls-2" d="M33.49,76.82a1,1,0,0,1-.3.37,1.49,1.49,0,0,1-.43.24,1.91,1.91,0,0,1-.54.08,2.46,2.46,0,0,1-.88-.17,2.77,2.77,0,0,1-.76-.42l.23-.3a2.87,2.87,0,0,0,.68.38,2.12,2.12,0,0,0,.75.14,1.14,1.14,0,0,0,.68-.2.65.65,0,0,0,.28-.56h0a.56.56,0,0,0-.08-.3.85.85,0,0,0-.24-.22,2.16,2.16,0,0,0-.34-.16l-.4-.12-.48-.15a1.86,1.86,0,0,1-.45-.2,1,1,0,0,1-.31-.3.79.79,0,0,1-.13-.44v0a1.05,1.05,0,0,1,.1-.44,1.31,1.31,0,0,1,.27-.35,1.42,1.42,0,0,1,.42-.23,1.78,1.78,0,0,1,.53-.08,2.43,2.43,0,0,1,.74.12,2.53,2.53,0,0,1,.68.33l-.21.32a2.49,2.49,0,0,0-.59-.29,1.76,1.76,0,0,0-.64-.11,1,1,0,0,0-.66.2.6.6,0,0,0-.24.49v0a.45.45,0,0,0,.09.28.75.75,0,0,0,.25.21,1.6,1.6,0,0,0,.35.15l.42.13.48.15a2.74,2.74,0,0,1,.42.21,1.26,1.26,0,0,1,.3.31.88.88,0,0,1,.11.45h0A1.06,1.06,0,0,1,33.49,76.82Z"/><path class="cls-2" d="M39.43,76.23a2.26,2.26,0,0,1-.43.67,2.37,2.37,0,0,1-.66.46,2.18,2.18,0,0,1-1.64,0,2.27,2.27,0,0,1-.64-.46,1.94,1.94,0,0,1-.43-.65,2.15,2.15,0,0,1-.15-.8v0a2.09,2.09,0,0,1,.15-.79,2,2,0,0,1,.43-.67,2.06,2.06,0,0,1,.66-.46,2,2,0,0,1,.82-.17,2,2,0,0,1,.81.17A2,2,0,0,1,39,74a2.09,2.09,0,0,1,.43.66,2.15,2.15,0,0,1,.15.8h0A2.11,2.11,0,0,1,39.43,76.23Zm-.26-.8a1.72,1.72,0,0,0-.47-1.22,1.64,1.64,0,0,0-.53-.37,1.75,1.75,0,0,0-.65-.13,1.66,1.66,0,0,0-.66.14,1.57,1.57,0,0,0-.51.36,1.64,1.64,0,0,0-.34.55,1.76,1.76,0,0,0-.12.66h0a1.91,1.91,0,0,0,.12.68,1.84,1.84,0,0,0,.35.55,1.77,1.77,0,0,0,.53.36,1.58,1.58,0,0,0,1.3,0,1.41,1.41,0,0,0,.52-.37,1.5,1.5,0,0,0,.34-.54,1.84,1.84,0,0,0,.12-.66Z"/><path class="cls-2" d="M43.81,73.8a1.61,1.61,0,0,0-.65.13,1.51,1.51,0,0,0-.56.38,1.94,1.94,0,0,0-.37.63,2.22,2.22,0,0,0-.15.85v1.64H41.7v-4h.38v1.13a2.48,2.48,0,0,1,.3-.49,2.16,2.16,0,0,1,.41-.39,1.78,1.78,0,0,1,.5-.24,1.49,1.49,0,0,1,.56-.07v.42Z"/><path class="cls-2" d="M45.78,72.4v-.53h.48v.53Zm0,5v-4h.38v4Z"/><path class="cls-2" d="M52.33,76.23a2.08,2.08,0,0,1-.43.67,2.18,2.18,0,0,1-.65.46,2,2,0,0,1-.82.16,2,2,0,0,1-.82-.16A2.32,2.32,0,0,1,49,76.9a1.92,1.92,0,0,1-.42-.65,2.15,2.15,0,0,1-.15-.8v0a2.09,2.09,0,0,1,.15-.79A1.88,1.88,0,0,1,49,74a2,2,0,0,1,.65-.46,2,2,0,0,1,.82-.17,2,2,0,0,1,.82.17,2.1,2.1,0,0,1,.65.45,2.06,2.06,0,0,1,.42.66,2,2,0,0,1,.16.8h0A1.94,1.94,0,0,1,52.33,76.23Zm-.25-.8a1.79,1.79,0,0,0-.48-1.22,1.59,1.59,0,0,0-.52-.37,1.79,1.79,0,0,0-.65-.13,1.59,1.59,0,0,0-.66.14,1.73,1.73,0,0,0-.52.36,1.82,1.82,0,0,0-.34.55,1.76,1.76,0,0,0-.12.66h0a1.72,1.72,0,0,0,.13.68,1.67,1.67,0,0,0,.35.55,1.73,1.73,0,0,0,.52.36,1.62,1.62,0,0,0,.65.14,1.61,1.61,0,0,0,1.18-.51,1.66,1.66,0,0,0,.34-.54,1.84,1.84,0,0,0,.12-.66Z"/><path class="cls-2" d="M57.17,76.82a1.06,1.06,0,0,1-.29.37,1.55,1.55,0,0,1-.44.24,1.91,1.91,0,0,1-.54.08,2.5,2.5,0,0,1-.88-.17,2.92,2.92,0,0,1-.76-.42l.23-.3a2.93,2.93,0,0,0,.69.38,2.11,2.11,0,0,0,.74.14,1.19,1.19,0,0,0,.69-.2.67.67,0,0,0,.27-.56h0a.48.48,0,0,0-.08-.3.85.85,0,0,0-.24-.22,2.53,2.53,0,0,0-.33-.16l-.4-.12-.49-.15a1.78,1.78,0,0,1-.44-.2,1,1,0,0,1-.32-.3.78.78,0,0,1-.12-.44v0a.92.92,0,0,1,.1-.44,1,1,0,0,1,.27-.35,1.25,1.25,0,0,1,.41-.23,1.78,1.78,0,0,1,.53-.08,2.43,2.43,0,0,1,.74.12,2.39,2.39,0,0,1,.68.33l-.2.32a2.69,2.69,0,0,0-.59-.29,1.84,1.84,0,0,0-.64-.11,1,1,0,0,0-.66.2.58.58,0,0,0-.25.49v0a.45.45,0,0,0,.09.28,1,1,0,0,0,.25.21,1.5,1.5,0,0,0,.36.15l.41.13.48.15a2.35,2.35,0,0,1,.42.21,1,1,0,0,1,.3.31.79.79,0,0,1,.12.45h0A1.06,1.06,0,0,1,57.17,76.82Z"/><path class="cls-2" d="M66.52,76.31a2.13,2.13,0,0,1-.44.65,2,2,0,0,1-.62.42,2,2,0,0,1-.71.14,1.63,1.63,0,0,1-.55-.08,1.85,1.85,0,0,1-.45-.21,2,2,0,0,1-.36-.3,4.39,4.39,0,0,1-.28-.36v2.11h-.39V73.44h.39v.89A2.55,2.55,0,0,1,63.4,74a2.11,2.11,0,0,1,.36-.31,1.55,1.55,0,0,1,.45-.21,1.53,1.53,0,0,1,.54-.09,1.89,1.89,0,0,1,1.33.55,2.06,2.06,0,0,1,.44.66,2,2,0,0,1,.17.87h0A2.06,2.06,0,0,1,66.52,76.31Zm-.24-.88a2,2,0,0,0-.12-.71,1.84,1.84,0,0,0-.34-.54,1.56,1.56,0,0,0-.5-.35,1.61,1.61,0,0,0-.6-.12,1.42,1.42,0,0,0-.61.13,1.54,1.54,0,0,0-.52.35,1.58,1.58,0,0,0-.37.54,1.75,1.75,0,0,0-.14.7h0a1.75,1.75,0,0,0,.14.7,1.58,1.58,0,0,0,.37.54,1.54,1.54,0,0,0,.52.35,1.55,1.55,0,0,0,1.22,0,1.43,1.43,0,0,0,.5-.34,1.49,1.49,0,0,0,.33-.53,2.05,2.05,0,0,0,.12-.72Z"/><path class="cls-2" d="M71.57,77.43v-.67a1.62,1.62,0,0,1-.25.28,2,2,0,0,1-.33.24,1.85,1.85,0,0,1-.43.18,2.12,2.12,0,0,1-.52.06,1.7,1.7,0,0,1-.55-.08,1.64,1.64,0,0,1-.5-.23,1.2,1.2,0,0,1-.35-.39,1,1,0,0,1-.14-.55h0a1.13,1.13,0,0,1,.13-.56,1.15,1.15,0,0,1,.35-.41,1.85,1.85,0,0,1,.55-.25,2.66,2.66,0,0,1,.71-.08A5.07,5.07,0,0,1,71,75a5.8,5.8,0,0,1,.6.13V75a1.14,1.14,0,0,0-.35-.91,1.4,1.4,0,0,0-1-.31,2.36,2.36,0,0,0-.67.09,3.69,3.69,0,0,0-.58.23l-.14-.33a4.51,4.51,0,0,1,.66-.26,3,3,0,0,1,.76-.09,1.81,1.81,0,0,1,1.22.39,1.49,1.49,0,0,1,.44,1.17v2.49Zm0-2L71,75.36a4.46,4.46,0,0,0-.77-.06,1.58,1.58,0,0,0-1,.25.8.8,0,0,0-.34.68h0a.8.8,0,0,0,.09.39.84.84,0,0,0,.25.28,1.21,1.21,0,0,0,.38.18,1.55,1.55,0,0,0,.43.07,1.81,1.81,0,0,0,.58-.09,1.55,1.55,0,0,0,.48-.25,1.23,1.23,0,0,0,.33-.39,1.06,1.06,0,0,0,.12-.5Z"/><path class="cls-2" d="M76.37,73.8a1.57,1.57,0,0,0-.65.13,1.51,1.51,0,0,0-.56.38,2,2,0,0,0-.38.63,2.44,2.44,0,0,0-.14.85v1.64h-.38v-4h.38v1.13a2.48,2.48,0,0,1,.3-.49,2.16,2.16,0,0,1,.41-.39,1.72,1.72,0,0,1,.49-.24,1.54,1.54,0,0,1,.57-.07v.42Z"/><path class="cls-2" d="M80.87,77.43v-.67a1.55,1.55,0,0,1-.24.28,1.72,1.72,0,0,1-.34.24,1.61,1.61,0,0,1-.42.18,2.18,2.18,0,0,1-.52.06,1.77,1.77,0,0,1-.56-.08,1.58,1.58,0,0,1-.49-.23,1.12,1.12,0,0,1-.36-.39,1.1,1.1,0,0,1-.14-.55h0a1.25,1.25,0,0,1,.13-.56,1.29,1.29,0,0,1,.36-.41,1.64,1.64,0,0,1,.55-.25,2.62,2.62,0,0,1,.71-.08,5.25,5.25,0,0,1,.73,0,5.61,5.61,0,0,1,.59.13V75a1.13,1.13,0,0,0-.34-.91,1.41,1.41,0,0,0-1-.31,2.31,2.31,0,0,0-.67.09,3.34,3.34,0,0,0-.58.23l-.14-.33a4.11,4.11,0,0,1,.66-.26,2.91,2.91,0,0,1,.75-.09,1.77,1.77,0,0,1,1.22.39,1.46,1.46,0,0,1,.45,1.17v2.49Zm0-2-.59-.12a4.34,4.34,0,0,0-.76-.06,1.61,1.61,0,0,0-1,.25.83.83,0,0,0-.34.68h0a.71.71,0,0,0,.1.39.75.75,0,0,0,.25.28,1.16,1.16,0,0,0,.37.18,1.62,1.62,0,0,0,.44.07,1.85,1.85,0,0,0,.58-.09,1.82,1.82,0,0,0,.48-.25,1.23,1.23,0,0,0,.33-.39,1.06,1.06,0,0,0,.12-.5Z"/><path class="cls-2" d="M92.5,77.43V75.06a1.47,1.47,0,0,0-.31-1,1.09,1.09,0,0,0-.87-.35,1.28,1.28,0,0,0-.48.09,1.09,1.09,0,0,0-.4.27,1.28,1.28,0,0,0-.28.45,1.78,1.78,0,0,0-.1.59v2.33h-.38V75a1.49,1.49,0,0,0-.31-1A1.22,1.22,0,0,0,88,73.81a1.21,1.21,0,0,0-.41.3,1.68,1.68,0,0,0-.27.45,1.75,1.75,0,0,0-.09.57v2.3h-.39v-4h.39v.71a2.73,2.73,0,0,1,.21-.3,1.39,1.39,0,0,1,.28-.26,1,1,0,0,1,.36-.18,1.65,1.65,0,0,1,1,0,1.5,1.5,0,0,1,.38.19,1.53,1.53,0,0,1,.29.28,1.55,1.55,0,0,1,.2.32c.07-.1.14-.21.23-.32a1.63,1.63,0,0,1,.31-.27,1.36,1.36,0,0,1,.4-.2,2,2,0,0,1,.5-.07,1.62,1.62,0,0,1,.64.12,1.72,1.72,0,0,1,.49.34,1.53,1.53,0,0,1,.3.53,2.06,2.06,0,0,1,.11.68v2.42Z"/><path class="cls-2" d="M98.91,76.23a2.26,2.26,0,0,1-.43.67,2.23,2.23,0,0,1-.66.46,2,2,0,0,1-.82.16,2,2,0,0,1-.81-.16,2.18,2.18,0,0,1-.65-.46,2.1,2.1,0,0,1-.43-.65,2.15,2.15,0,0,1-.15-.8v0a2.09,2.09,0,0,1,.15-.79,2.2,2.2,0,0,1,.43-.67,2.18,2.18,0,0,1,.66-.46,2.06,2.06,0,0,1,1.64,0,2.06,2.06,0,0,1,.64.45,1.93,1.93,0,0,1,.43.66,2.15,2.15,0,0,1,.15.8h0A2.11,2.11,0,0,1,98.91,76.23Zm-.26-.8a1.85,1.85,0,0,0-.12-.67,1.67,1.67,0,0,0-.35-.55,1.64,1.64,0,0,0-.53-.37,1.75,1.75,0,0,0-.65-.13,1.58,1.58,0,0,0-.65.14,1.51,1.51,0,0,0-.52.36,1.64,1.64,0,0,0-.34.55,1.76,1.76,0,0,0-.12.66h0a1.91,1.91,0,0,0,.12.68,1.84,1.84,0,0,0,.35.55,1.77,1.77,0,0,0,.53.36,1.58,1.58,0,0,0,.65.14,1.66,1.66,0,0,0,.66-.14,1.46,1.46,0,0,0,.51-.37,1.5,1.5,0,0,0,.34-.54,1.84,1.84,0,0,0,.12-.66Z"/><path class="cls-2" d="M102.85,77.46a1.18,1.18,0,0,1-.34,0,1.61,1.61,0,0,1-.44-.06.94.94,0,0,1-.35-.2,1,1,0,0,1-.24-.35,1.22,1.22,0,0,1-.09-.49V73.79h-.58v-.35h.58V72.16h.39v1.28h1.4v.35h-1.4v2.57a.7.7,0,0,0,.22.6,1,1,0,0,0,.58.17,1.27,1.27,0,0,0,.28,0,1.5,1.5,0,0,0,.3-.1v.36A1.12,1.12,0,0,1,102.85,77.46Z"/><path class="cls-2" d="M108.81,76.23a2.26,2.26,0,0,1-.43.67,2.32,2.32,0,0,1-.65.46,2,2,0,0,1-.83.16,2,2,0,0,1-.81-.16,2.18,2.18,0,0,1-.65-.46,2.1,2.1,0,0,1-.43-.65,2.15,2.15,0,0,1-.15-.8v0a2.09,2.09,0,0,1,.15-.79,2.2,2.2,0,0,1,.43-.67,2.18,2.18,0,0,1,.66-.46,2.06,2.06,0,0,1,1.64,0,2.08,2.08,0,0,1,1.07,1.11,2.15,2.15,0,0,1,.15.8h0A2.11,2.11,0,0,1,108.81,76.23Zm-.25-.8a1.86,1.86,0,0,0-.13-.67,1.67,1.67,0,0,0-.35-.55,1.64,1.64,0,0,0-.53-.37,1.71,1.71,0,0,0-.65-.13,1.58,1.58,0,0,0-.65.14,1.61,1.61,0,0,0-.52.36,1.64,1.64,0,0,0-.34.55,1.76,1.76,0,0,0-.12.66h0a1.91,1.91,0,0,0,.12.68,1.84,1.84,0,0,0,.35.55,1.77,1.77,0,0,0,.53.36,1.58,1.58,0,0,0,.65.14,1.63,1.63,0,0,0,.66-.14,1.59,1.59,0,0,0,.52-.37,1.63,1.63,0,0,0,.33-.54,1.85,1.85,0,0,0,.13-.66Z"/><path class="cls-2" d="M113.65,76.82a1,1,0,0,1-.3.37,1.49,1.49,0,0,1-.43.24,1.91,1.91,0,0,1-.54.08,2.46,2.46,0,0,1-.88-.17,2.77,2.77,0,0,1-.76-.42l.23-.3a2.74,2.74,0,0,0,.69.38,2,2,0,0,0,.74.14,1.14,1.14,0,0,0,.68-.2.65.65,0,0,0,.28-.56h0a.56.56,0,0,0-.08-.3.85.85,0,0,0-.24-.22,2.16,2.16,0,0,0-.34-.16l-.4-.12-.48-.15a1.86,1.86,0,0,1-.45-.2,1,1,0,0,1-.31-.3.79.79,0,0,1-.13-.44v0A1.05,1.05,0,0,1,111,74a1.31,1.31,0,0,1,.27-.35,1.42,1.42,0,0,1,.42-.23,1.78,1.78,0,0,1,.53-.08,2.43,2.43,0,0,1,.74.12,2.53,2.53,0,0,1,.68.33l-.21.32a2.49,2.49,0,0,0-.59-.29,1.76,1.76,0,0,0-.64-.11,1,1,0,0,0-.66.2.6.6,0,0,0-.24.49v0a.45.45,0,0,0,.09.28.75.75,0,0,0,.25.21,1.6,1.6,0,0,0,.35.15l.42.13.48.15a2.74,2.74,0,0,1,.42.21,1.26,1.26,0,0,1,.3.31.88.88,0,0,1,.11.45h0A1.06,1.06,0,0,1,113.65,76.82Z"/></svg>