<?xml version="1.0" encoding="utf-8"?>
<!-- Generator: Adobe Illustrator 24.0.2, SVG Export Plug-In . SVG Version: 6.00 Build 0)  -->
<svg version="1.1" id="Capa_1" xmlns="http://www.w3.org/2000/svg" xmlns:xlink="http://www.w3.org/1999/xlink" x="0px" y="0px"
	 viewBox="0 0 566.93 278.73" style="enable-background:new 0 0 566.93 278.73;" xml:space="preserve">
<style type="text/css">
	.st0{fill:#00AEC3;}
	.st1{opacity:0.4;}
	.st2{fill:#FFFFFF;}
	.st3{fill:#00AFCB;}
</style>
<g>
	<g>
		<path class="st0" d="M87.99,98.06c23.52,0,38.44-14.69,38.44-14.69c38.36-36.8,73.13-47.17,100.15-47.17
			c34.92,0,56.89,17.33,56.89,17.33s21.96-17.33,56.89-17.33c27.02,0,61.79,10.38,100.15,47.17c0,0,14.92,14.69,38.44,14.69
			c9.16,0,19.63-2.23,31.02-8.43c0,0,10.93-7.68,15.67-12.31c-0.17-3.65-0.52-5.81-0.52-5.81c-0.02,0.02-0.04,0.04-0.06,0.06
			c-4.64,4.61-15.78,12.47-15.78,12.47c-40.52,22.1-69.26-6.26-69.26-6.26C352.35-6.59,283.46,47.93,283.46,47.93
			S214.58-6.59,126.9,77.77c0,0-28.73,28.37-69.26,6.26c0,0-11.24-7.92-15.84-12.52c0,0-0.04,0.25-0.1,0.71
			c-0.12,0.91-0.31,2.67-0.42,5.1c4.74,4.63,15.67,12.32,15.67,12.32C68.36,95.83,78.82,98.06,87.99,98.06z"/>
		<path d="M525.64,81.82c-5.23,4.34-13.83,9.66-14.19,9.91l-0.12,0.08l-0.13,0.07c-10.66,5.8-21.51,8.74-32.25,8.74
			c-24.29,0-39.6-14.8-40.24-15.43c-32.11-30.8-65.21-46.43-98.35-46.43c-33.55,0-55.08,16.61-55.3,16.78l-1.59,1.25l-1.59-1.25
			c-0.21-0.17-21.76-16.78-55.3-16.78c-33.14,0-66.24,15.63-98.37,46.45c-0.62,0.61-15.93,15.4-40.22,15.4
			c-10.74,0-21.59-2.94-32.25-8.74l-0.13-0.07l-0.12-0.08c-0.36-0.26-8.99-6.87-14.19-11.19c-0.38,6.52,1.64,20.32,5.85,33.42
			c2.31,7.17,5.81,14.67,11.13,21.83c16.84,22.63,46.38,34.62,87.8,35.64c0.05,0,0.31,0.01,0.79,0.01
			c7.06,0,70.86-1.84,134.79-65.57l1.81-1.81l1.81,1.81c63.92,63.73,127.72,65.57,134.79,65.57c0.48,0,0.74-0.01,0.77-0.01
			c41.02-1.01,70.4-12.78,87.33-34.98c5.35-7.01,8.9-14.45,11.27-21.59C523.89,101.4,525.98,88.39,525.64,81.82z"/>
	</g>
	<g>
		<path class="st0" d="M4.64,211.11c1.82-0.57,2.28-1.14,2.28-3.31V157.5c0-2.17-0.46-2.85-2.28-3.32v-1.48h18.04v1.48
			c-1.18,0.23-1.73,1.03-1.73,2.39c0,0.69,0.37,1.26,0.64,2.05l12.75,31.49l13.57-31.49c0.36-0.79,0.64-1.48,0.64-2.16
			c0-1.25-0.55-1.82-1.82-2.28v-1.48h17.58v1.48c-1.82,0.57-2.28,1.14-2.28,3.32v50.31c0,2.16,0.46,2.85,2.28,3.31v1.48H49.92v-1.48
			c1.82-0.45,2.27-1.14,2.27-3.31v-38.33L33.7,212.15l-17.58-42.67v38.33c0,2.16,0.27,2.73,2.18,3.31v1.48H4.64V211.11z"/>
		<path class="st0" d="M132.29,182.6c0,17.22-11.12,31.03-27.7,31.03c-16.22,0-27.5-13.81-27.5-31.03
			c0-17.23,11.02-30.92,27.5-30.92C121.36,151.68,132.29,165.37,132.29,182.6z M104.69,202.44c10.75,0,17.49-8.32,17.49-20.19
			c0-11.86-6.65-20.3-17.58-20.3c-10.66,0-17.4,8.44-17.4,20.3C87.2,194.12,93.85,202.44,104.69,202.44z"/>
		<path class="st0" d="M171.39,203.7c10.48,0,13.76-5.25,13.76-15.52l-0.1-30.69c0-2.17-0.36-2.85-2.18-3.32v-1.48h15.03v1.48
			c-1.82,0.46-2.28,1.14-2.28,3.32v32.28c0,17.12-6.64,23.85-24.32,23.85c-17.03,0-24.04-6.85-24.04-23.85V157.5
			c0-2.17-0.37-2.85-2.19-3.32v-1.48h14.94v1.48c-1.82,0.46-2.19,1.14-2.19,3.32v31.48C157.81,199.02,161.01,203.7,171.39,203.7z"/>
		<path class="st0" d="M216.95,193.66l1.46,0.8c-0.09,0.46-0.18,0.8-0.18,1.14c0,2.51,8.65,7.53,17.85,7.53
			c7.74,0,12.66-3.66,12.66-8.1c0-7.3-8.01-5.59-18.94-6.84c-11.39-1.26-17.04-6.62-17.04-16.55c0-11.52,8.56-19.74,22.23-19.74
			c11.48,0,19.22,6.73,21.04,6.73c0.45,0,1-0.45,1.72-1.13l1.09,0.68l-5.83,14.14l-1.54-1.02c0.09-0.23,0.09-0.34,0.09-0.57
			c0-3.09-8.01-8.67-16.85-8.67c-7.47,0-11.66,3.32-11.66,7.42c0,6.61,7.1,4.68,18.76,6.5s17.76,8.21,17.76,17.8
			c0,10.95-9.29,19.85-23.86,19.85c-13.39,0-19.68-6.39-21.22-6.39c-0.64,0-0.91,0.34-1.18,1.25l-1.46-0.57L216.95,193.66z"/>
		<path class="st0" d="M270.09,166.05h-1.18v-16.21h1.18c0.36,2.28,0.91,2.85,2.64,2.85h40.08c1.73,0,2.18-0.34,2.64-2.85h1.18
			v16.32h-1.18c-0.37-2.28-0.91-2.85-2.64-2.85h-14.84v44.5c0,2.16,0.27,2.73,2.18,3.31v1.48H285.2v-1.48
			c1.82-0.57,2.28-1.14,2.28-3.31v-44.5h-14.75C271,163.31,270.54,163.66,270.09,166.05z"/>
		<path class="st0" d="M317.65,211.11c2.73-0.91,3.29-3.08,4.29-5.82l17.76-46.55c0.27-0.68,0.45-1.14,0.45-1.71
			c0-1.37-0.9-2.28-2.54-2.85v-1.48h16.21v1.48c-1.63,0.69-2.27,1.26-2.27,2.51c0,0.57,0.18,1.25,0.46,2.05l18.3,46.55
			c1.28,3.2,2.28,5.14,4.47,5.82v1.48h-17.22v-1.48c1.64-0.68,2.28-1.37,2.28-2.62c0-0.57-0.19-1.25-0.46-2.05l-3.46-9.24h-21.96
			l-3.28,9.24c-0.28,0.8-0.46,1.48-0.46,2.05c0,1.25,0.64,1.94,2.28,2.62v1.48h-14.85V211.11z M337.14,189.1h15.86l-7.74-21.1
			L337.14,189.1z"/>
		<path class="st0" d="M427.52,191.15l6.64,12.89l-1,0.8c-0.54-0.57-0.91-0.91-1.36-0.91c-1.91,0-10.02,9.81-24.05,9.81
			c-16.21,0-27.69-13.69-27.69-31.14c0-17.58,11.11-31.15,28.87-31.15c11.12,0,17.49,5.36,20.41,5.36c0.63,0,1.45-0.11,2.45-0.34
			l1,0.8l-6.74,13.57l-1.09-0.79c0.09-0.23,0.09-0.35,0.09-0.57c0-2.97-7.83-7.87-16.4-7.87c-10.84,0-18.31,8.89-18.31,20.3
			c0,12.32,7.47,20.76,18.58,20.76c9.76,0,17.95-6.84,17.95-8.66c0-0.46-0.09-1.14-0.36-2.05L427.52,191.15z"/>
		<path class="st0" d="M460.61,211.11v1.48h-15.03v-1.48c1.82-0.57,2.28-1.14,2.28-3.31V157.5c0-2.17-0.46-2.85-2.28-3.32v-1.48
			h15.03v1.48c-1.82,0.46-2.28,1.14-2.28,3.32v18.48h27.61V157.5c0-2.17-0.18-2.74-2.18-3.32v-1.48h14.93v1.48
			c-1.82,0.46-2.18,1.14-2.18,3.32v50.31c0,2.16,0.27,2.73,2.18,3.31v1.48h-14.93v-1.48c1.81-0.45,2.18-1.14,2.18-3.31v-20.65
			h-27.61v20.65C458.32,209.97,458.7,210.54,460.61,211.11z"/>
		<path class="st0" d="M561.1,199.13h1.18v16.32h-1.18c-0.37-2.28-0.91-2.85-2.64-2.85h-43.45v-1.48c1.82-0.57,2.28-1.14,2.28-3.31
			V157.5c0-2.17-0.46-2.85-2.28-3.32v-1.48h42.91c1.72,0,2.18-0.34,2.63-2.85h1.18v16.32h-1.18c-0.36-2.28-0.91-2.85-2.63-2.85
			h-30.16v13.24h19.22c1.73,0,2.18-0.23,2.64-2.74h1.18v15.17h-1.18c-0.36-2.27-0.91-2.73-2.64-2.73h-19.22v15.64h30.7
			C560.19,201.88,560.64,201.65,561.1,199.13z"/>
	</g>
	<g class="st1">
		<path class="st2" d="M104.67,151.62c-8.2,0-15.05,3.4-19.86,8.93c3.13,1.58,6.52,3.03,10.1,4.38c2.68-1.92,5.95-3.04,9.76-3.04
			c7.17,0,12.45,3.68,15.26,9.53c3.58,0.59,7.19,1.15,11.09,1.53C127.73,160.53,118.14,151.62,104.67,151.62z"/>
		<path class="st2" d="M197.97,154.13v-1.48h-15.03v1.48c1.82,0.46,2.18,1.14,2.18,3.32l0.03,10.18c3.36-0.96,6.86-2.08,10.53-3.36
			v-6.82C195.69,155.27,196.15,154.59,197.97,154.13z"/>
		<path class="st2" d="M157.89,157.44c0-2.17,0.37-2.85,2.19-3.32v-1.48h-14.94v1.48c1.82,0.46,2.19,1.14,2.19,3.32v16.5
			c1.73-0.01,5.3-0.11,10.56-0.7V157.44z"/>
		<path class="st2" d="M353.88,154.13v-1.48h-9.4c2.48,1.28,4.88,2.41,7.29,3.54C351.94,155.29,352.49,154.71,353.88,154.13z"/>
		<path class="st2" d="M408.73,161.55c8.56,0,16.4,4.9,16.4,7.87c0,0.22,0,0.34-0.09,0.57l1.09,0.79l6.74-13.57l-1-0.8
			c-1,0.23-1.82,0.34-2.45,0.34c-2.92,0-9.3-5.36-20.41-5.36c-12.37,0-21.4,6.66-25.81,16.59c3.57,1,6.96,1.85,10.11,2.54
			C396.44,165.08,401.92,161.55,408.73,161.55z"/>
		<path class="st2" d="M458.4,157.44c0-2.17,0.46-2.85,2.28-3.32v-1.48h-15.03v1.48c1.82,0.46,2.28,1.14,2.28,3.32v13.86
			c3.65-0.62,7.14-1.33,10.47-2.15V157.44z"/>
		<path class="st2" d="M483.82,154.13c2,0.57,2.18,1.14,2.18,3.32v1.14c3.32-1.87,6.39-3.85,9.19-5.94h-11.38V154.13z"/>
	</g>
	<g>
		<g>
			<path class="st3" d="M237.52,254.31c0-4.63,2.04-6.82,6.79-6.82c4.09,0,6.49,2.07,6.49,6.28c0,6.25-5.08,7.39-7.72,11.96
				c-0.12,0.21-0.21,0.42-0.3,0.66c-0.09,0.21-0.18,0.42-0.24,0.66h8.08v4.45h-13.59v-1.47c0-10.22,8.42-10.22,8.42-16.23
				c0-1.11-0.15-2.22-1.47-2.22c-1.32,0-1.47,1.11-1.47,2.22v2.37h-4.99V254.31z"/>
			<path class="st3" d="M276.99,265.88c0,3.67-2.31,6.01-6.61,6.01c-3.88,0-6.25-1.68-6.25-6.07h4.81c0,1.23,0.36,1.98,1.44,1.98
				c1.08,0,1.44-0.75,1.44-1.98v-2.67l-0.06-0.06c-0.87,1.14-1.59,1.35-3.01,1.35c-3.97,0-4.99-2.7-4.99-6.28v-4.66
				c0-3.67,2.31-6.01,6.61-6.01c4.27,0,6.61,2.34,6.61,6.01V265.88z M271.64,253.1c0-1.26-0.57-1.53-1.26-1.53
				c-0.66,0-1.26,0.27-1.26,1.53v5.71c0,1.26,0.6,1.53,1.26,1.53c0.69,0,1.26-0.27,1.26-1.53V253.1z"/>
			<path class="st3" d="M290.21,253.49c0-3.67,2.31-6.01,6.61-6.01c4.27,0,6.61,2.34,6.61,6.01v12.38c0,3.67-2.31,6.01-6.61,6.01
				c-4.27,0-6.61-2.34-6.61-6.01V253.49z M295.56,266.27c0,1.26,0.57,1.53,1.26,1.53c0.66,0,1.26-0.27,1.26-1.53V253.1
				c0-1.26-0.6-1.53-1.26-1.53c-0.69,0-1.26,0.27-1.26,1.53V266.27z"/>
			<path class="st3" d="M316.66,263.89c0-1.71,0-4.03,2.7-5.08c-1.92-0.78-2.52-2.52-2.52-3.7v-1.62c0-1.68,0-6.01,6.43-6.01
				s6.43,4.33,6.43,6.01v1.62c0,1.17-0.63,2.86-2.61,3.7c2.65,0.93,2.8,2.67,2.8,5.08v1.98c0,3.67-2.31,6.01-6.61,6.01
				c-4.27,0-6.61-2.34-6.61-6.01V263.89z M322.01,255.3c0,1.26,0.57,1.53,1.26,1.53c0.66,0,1.26-0.27,1.26-1.53v-2.19
				c0-1.26-0.6-1.53-1.26-1.53c-0.69,0-1.26,0.27-1.26,1.53V255.3z M322.01,266.27c0,1.26,0.57,1.53,1.26,1.53
				c0.66,0,1.26-0.27,1.26-1.53v-3.82c0-1.26-0.6-1.53-1.26-1.53c-0.69,0-1.26,0.27-1.26,1.53V266.27z"/>
		</g>
	</g>
	<g>
		<path class="st0" d="M84.19,238.94c16.61-0.29,33.21-0.41,49.82-0.62l49.82-0.36c16.61-0.15,33.21-0.13,49.82-0.18l49.82-0.12
			l49.82,0.11c16.61,0.06,33.21,0.02,49.82,0.18l49.82,0.36c16.61,0.21,33.21,0.34,49.82,0.63c-16.61,0.29-33.21,0.42-49.82,0.63
			l-49.82,0.36c-16.61,0.16-33.21,0.12-49.82,0.18l-49.82,0.11l-49.82-0.12c-16.61-0.06-33.21-0.03-49.82-0.18l-49.82-0.36
			C117.4,239.35,100.79,239.23,84.19,238.94z"/>
	</g>
</g>
</svg>
